# xmcd CD database file
#
# Track frame offsets:
#	150
#	12673
#	27370
#	44403
#	59526
#	73839
#	93699
#	107127
#	122884
#	137795
#	155206
#	168011
#	181282
#	199573
#
# Disc length: 2879 seconds
#
# Revision: 0
# Processed by: cddbd v1.5.2PL0 Copyright (c) Steve Scherf et al.
# Submitted via: CDex 1.51
#
DISCID=cf0b3d0e
DTITLE=get up and dance special nr.66 - get up and dance special nr.66
DYEAR=2008
DGENRE=Country
TTITLE0=Come On Over
TTITLE1=East Bound and Truckin'
TTITLE2=A Dance Of Love
TTITLE3=Boogie Woogie Country Girl
TTITLE4=Cabo San Lucas
TTITLE5=Baby Believe
TTITLE6=Viva La Vida
TTITLE7=Doin' What I Did
TTITLE8=Little By Little
TTITLE9=Away From You
TTITLE10=Gotta Keep Praying
TTITLE11=Playboy Cowboy
TTITLE12=M.C. Swing
TTITLE13=Oh La La La
EXTD=YEAR: 2008
EXTT0=
EXTT1=
EXTT2=
EXTT3=
EXTT4=
EXTT5=
EXTT6=
EXTT7=
EXTT8=
EXTT9=
EXTT10=
EXTT11=
EXTT12=
EXTT13=
PLAYORDER=
